<svg xmlns="http://www.w3.org/2000/svg" viewBox="0 0 1024 857" fill="none">
  <defs>
    <filter id="glow" x="-50%" y="-50%" width="200%" height="200%">
      <feGaussianBlur stdDeviation="4" result="coloredBlur"/>
      <feMerge>
        <feMergeNode in="coloredBlur"/>
        <feMergeNode in="SourceGraphic"/>
      </feMerge>
    </filter>
    
    <linearGradient id="nibLeft" x1="0" y1="0" x2="1" y2="0">
      <stop offset="0%" stop-color="#00e5ff"/>
      <stop offset="100%" stop-color="#004e92"/>
    </linearGradient>
    
    <linearGradient id="nibRight" x1="0" y1="0" x2="1" y2="0">
      <stop offset="0%" stop-color="#001b3a"/>
      <stop offset="100%" stop-color="#000000"/>
    </linearGradient>
  </defs>

  <!-- NIB SHAPE - RAW TRACED PATH -->
  <!-- Split into left and right for gradient -->
  <!-- Center X is approx 500 -->
  
  <mask id="nibSplitLeft">
    <rect x="0" y="0" width="500" height="857" fill="white" />
  </mask>
  <mask id="nibSplitRight">
    <rect x="500" y="0" width="524" height="857" fill="white" />
  </mask>

  <!-- Full Nib Path -->
  <path d="M 497 83 L 473 85 L 472 87 L 471 89 L 471 91 L 470 93 L 470 95 L 469 97 L 469 99 L 469 101 L 468 103 L 467 105 L 467 107 L 467 109 L 466 111 L 465 113 L 465 115 L 464 117 L 464 119 L 463 121 L 463 123 L 462 125 L 462 127 L 461 129 L 460 131 L 460 133 L 459 135 L 459 137 L 458 139 L 457 141 L 457 143 L 456 145 L 455 147 L 455 149 L 454 151 L 453 153 L 452 155 L 452 157 L 451 159 L 450 161 L 449 163 L 448 165 L 447 167 L 447 169 L 446 171 L 445 173 L 444 175 L 443 177 L 442 179 L 441 181 L 440 183 L 440 185 L 439 187 L 438 189 L 437 191 L 436 193 L 435 195 L 434 197 L 433 199 L 432 201 L 431 203 L 430 205 L 429 207 L 428 209 L 427 211 L 425 213 L 424 215 L 423 217 L 422 219 L 421 221 L 420 223 L 419 225 L 417 227 L 416 229 L 415 231 L 413 233 L 412 235 L 411 237 L 410 239 L 408 241 L 407 243 L 406 245 L 404 247 L 403 249 L 402 251 L 400 253 L 399 255 L 398 257 L 396 259 L 395 261 L 393 263 L 392 265 L 390 267 L 389 269 L 387 271 L 385 273 L 384 275 L 382 277 L 380 279 L 379 281 L 377 283 L 375 285 L 373 287 L 371 289 L 370 291 L 368 293 L 366 295 L 365 297 L 366 299 L 368 301 L 369 303 L 370 305 L 372 307 L 373 309 L 375 311 L 376 313 L 377 315 L 378 317 L 380 319 L 381 321 L 382 323 L 384 325 L 385 327 L 386 329 L 387 331 L 388 333 L 389 335 L 390 337 L 391 339 L 392 341 L 393 343 L 394 345 L 395 347 L 396 349 L 397 351 L 398 353 L 398 355 L 399 357 L 400 359 L 400 361 L 401 363 L 402 365 L 403 367 L 403 369 L 404 371 L 405 373 L 405 375 L 406 377 L 407 379 L 407 381 L 408 383 L 409 385 L 410 387 L 410 389 L 412 391 L 417 415 L 416 417 L 416 419 L 416 421 L 403 425 L 397 427 L 580 427 L 574 425 L 421 421 L 421 419 L 420 417 L 420 415 L 415 391 L 415 389 L 415 387 L 567 385 L 568 383 L 569 381 L 570 379 L 570 377 L 571 375 L 572 373 L 573 371 L 573 369 L 574 367 L 574 365 L 575 363 L 576 361 L 577 359 L 577 357 L 578 355 L 579 353 L 580 351 L 581 349 L 582 347 L 583 345 L 584 343 L 584 341 L 586 339 L 586 337 L 587 335 L 589 333 L 590 331 L 591 329 L 592 327 L 593 325 L 595 323 L 596 321 L 597 319 L 598 317 L 599 315 L 601 313 L 602 311 L 603 309 L 605 307 L 607 305 L 608 303 L 610 301 L 611 299 L 612 297 L 611 295 L 609 293 L 608 291 L 606 289 L 604 287 L 602 285 L 600 283 L 599 281 L 597 279 L 595 277 L 593 275 L 592 273 L 590 271 L 588 269 L 587 267 L 585 265 L 584 263 L 582 261 L 581 259 L 580 257 L 578 255 L 577 253 L 575 251 L 574 249 L 573 247 L 571 245 L 570 243 L 569 241 L 567 239 L 566 237 L 565 235 L 563 233 L 562 231 L 561 229 L 559 227 L 558 225 L 557 223 L 556 221 L 555 219 L 554 217 L 552 215 L 551 213 L 550 211 L 549 209 L 548 207 L 547 205 L 546 203 L 545 201 L 544 199 L 543 197 L 542 195 L 541 193 L 540 191 L 539 189 L 538 187 L 538 185 L 537 183 L 536 181 L 535 179 L 534 177 L 533 175 L 532 173 L 531 171 L 530 169 L 529 167 L 528 165 L 528 163 L 527 161 L 526 159 L 525 157 L 525 155 L 524 153 L 523 151 L 522 149 L 522 147 L 521 145 L 520 143 L 520 141 L 519 139 L 518 137 L 518 135 L 517 133 L 517 131 L 516 129 L 516 127 L 515 125 L 514 123 L 514 121 L 513 119 L 513 117 L 512 115 L 512 113 L 511 111 L 511 109 L 510 107 L 510 105 L 509 103 L 509 101 L 508 99 L 508 97 L 507 95 L 507 93 L 507 91 L 506 89 L 505 87 L 504 85 L 500 83 Z" 
        fill="url(#nibLeft)" 
        stroke="#00e5ff" 
        stroke-width="3" 
        filter="url(#glow)"
        mask="url(#nibSplitLeft)"/>

  <path d="M 497 83 L 473 85 L 472 87 L 471 89 L 471 91 L 470 93 L 470 95 L 469 97 L 469 99 L 469 101 L 468 103 L 467 105 L 467 107 L 467 109 L 466 111 L 465 113 L 465 115 L 464 117 L 464 119 L 463 121 L 463 123 L 462 125 L 462 127 L 461 129 L 460 131 L 460 133 L 459 135 L 459 137 L 458 139 L 457 141 L 457 143 L 456 145 L 455 147 L 455 149 L 454 151 L 453 153 L 452 155 L 452 157 L 451 159 L 450 161 L 449 163 L 448 165 L 447 167 L 447 169 L 446 171 L 445 173 L 444 175 L 443 177 L 442 179 L 441 181 L 440 183 L 440 185 L 439 187 L 438 189 L 437 191 L 436 193 L 435 195 L 434 197 L 433 199 L 432 201 L 431 203 L 430 205 L 429 207 L 428 209 L 427 211 L 425 213 L 424 215 L 423 217 L 422 219 L 421 221 L 420 223 L 419 225 L 417 227 L 416 229 L 415 231 L 413 233 L 412 235 L 411 237 L 410 239 L 408 241 L 407 243 L 406 245 L 404 247 L 403 249 L 402 251 L 400 253 L 399 255 L 398 257 L 396 259 L 395 261 L 393 263 L 392 265 L 390 267 L 389 269 L 387 271 L 385 273 L 384 275 L 382 277 L 380 279 L 379 281 L 377 283 L 375 285 L 373 287 L 371 289 L 370 291 L 368 293 L 366 295 L 365 297 L 366 299 L 368 301 L 369 303 L 370 305 L 372 307 L 373 309 L 375 311 L 376 313 L 377 315 L 378 317 L 380 319 L 381 321 L 382 323 L 384 325 L 385 327 L 386 329 L 387 331 L 388 333 L 389 335 L 390 337 L 391 339 L 392 341 L 393 343 L 394 345 L 395 347 L 396 349 L 397 351 L 398 353 L 398 355 L 399 357 L 400 359 L 400 361 L 401 363 L 402 365 L 403 367 L 403 369 L 404 371 L 405 373 L 405 375 L 406 377 L 407 379 L 407 381 L 408 383 L 409 385 L 410 387 L 410 389 L 412 391 L 417 415 L 416 417 L 416 419 L 416 421 L 403 425 L 397 427 L 580 427 L 574 425 L 421 421 L 421 419 L 420 417 L 420 415 L 415 391 L 415 389 L 415 387 L 567 385 L 568 383 L 569 381 L 570 379 L 570 377 L 571 375 L 572 373 L 573 371 L 573 369 L 574 367 L 574 365 L 575 363 L 576 361 L 577 359 L 577 357 L 578 355 L 579 353 L 580 351 L 581 349 L 582 347 L 583 345 L 584 343 L 584 341 L 586 339 L 586 337 L 587 335 L 589 333 L 590 331 L 591 329 L 592 327 L 593 325 L 595 323 L 596 321 L 597 319 L 598 317 L 599 315 L 601 313 L 602 311 L 603 309 L 605 307 L 607 305 L 608 303 L 610 301 L 611 299 L 612 297 L 611 295 L 609 293 L 608 291 L 606 289 L 604 287 L 602 285 L 600 283 L 599 281 L 597 279 L 595 277 L 593 275 L 592 273 L 590 271 L 588 269 L 587 267 L 585 265 L 584 263 L 582 261 L 581 259 L 580 257 L 578 255 L 577 253 L 575 251 L 574 249 L 573 247 L 571 245 L 570 243 L 569 241 L 567 239 L 566 237 L 565 235 L 563 233 L 562 231 L 561 229 L 559 227 L 558 225 L 557 223 L 556 221 L 555 219 L 554 217 L 552 215 L 551 213 L 550 211 L 549 209 L 548 207 L 547 205 L 546 203 L 545 201 L 544 199 L 543 197 L 542 195 L 541 193 L 540 191 L 539 189 L 538 187 L 538 185 L 537 183 L 536 181 L 535 179 L 534 177 L 533 175 L 532 173 L 531 171 L 530 169 L 529 167 L 528 165 L 528 163 L 527 161 L 526 159 L 525 157 L 525 155 L 524 153 L 523 151 L 522 149 L 522 147 L 521 145 L 520 143 L 520 141 L 519 139 L 518 137 L 518 135 L 517 133 L 517 131 L 516 129 L 516 127 L 515 125 L 514 123 L 514 121 L 513 119 L 513 117 L 512 115 L 512 113 L 511 111 L 511 109 L 510 107 L 510 105 L 509 103 L 509 101 L 508 99 L 508 97 L 507 95 L 507 93 L 507 91 L 506 89 L 505 87 L 504 85 L 500 83 Z" 
        fill="url(#nibRight)" 
        stroke="#00e5ff" 
        stroke-width="3" 
        filter="url(#glow)"
        mask="url(#nibSplitRight)"/>

  <!-- Center Slit -->
  <line x1="500" y1="83" x2="500" y2="350" stroke="#00e5ff" stroke-width="4" filter="url(#glow)"/>

  <!-- Breather Hole -->
  <circle cx="500" cy="380" r="20" fill="#000000" stroke="#00e5ff" stroke-width="5" filter="url(#glow)"/>

  <!-- Band -->
  <!-- Rect: x=388 y=428 width=378 height=85 -->
  <rect x="388" y="428" width="378" height="85" rx="15" fill="none" stroke="#00ff9d" stroke-width="8" filter="url(#glow)"/>
  
  <!-- Band Separators -->
  <line x1="430" y1="428" x2="430" y2="513" stroke="#00ff9d" stroke-width="5" filter="url(#glow)"/>
  <line x1="480" y1="428" x2="480" y2="513" stroke="#00ff9d" stroke-width="5" filter="url(#glow)"/>
  <line x1="530" y1="428" x2="530" y2="513" stroke="#00ff9d" stroke-width="5" filter="url(#glow)"/>
  <line x1="580" y1="428" x2="580" y2="513" stroke="#00ff9d" stroke-width="5" filter="url(#glow)"/>

  <!-- Circuits -->
  <!-- Approx Y start 520 -->
  <g stroke="#00ff9d" stroke-width="6" fill="none" stroke-linecap="round" filter="url(#glow)">
    <!-- Line 1: Far Left -->
    <path d="M 430 520 L 430 580 L 380 630 L 380 680 L 350 710"/>
    <circle cx="350" cy="710" r="8" fill="#00ff9d" stroke="none"/>

    <!-- Line 2: Mid Left -->
    <path d="M 480 520 L 480 610 L 430 660 L 430 740"/>
    <circle cx="430" cy="740" r="8" fill="#00ff9d" stroke="none"/>

    <!-- Line 3: Mid Right -->
    <path d="M 530 520 L 530 640 L 560 670 L 560 750"/>
    <circle cx="560" cy="750" r="8" fill="#00ff9d" stroke="none"/>

    <!-- Line 4: Far Right (Stem) -->
    <path d="M 580 520 L 580 570 L 630 620 L 730 720"/>
  </g>

  <!-- Pixelated Leaf -->
  <!-- Grid pitch ~15px? -->
  <g fill="#00ff9d" filter="url(#glow)">
    <!-- Stem Line (Diagonal) -->
    <!-- M 630 620 -> 730 720 -->
    
    <!-- Pixels above stem -->
    <rect x="650" y="620" width="12" height="12" />
    <rect x="670" y="620" width="12" height="12" />
    
    <rect x="660" y="640" width="12" height="12" />
    <rect x="680" y="640" width="12" height="12" />
    <rect x="700" y="640" width="12" height="12" />
    
    <rect x="670" y="660" width="12" height="12" />
    <rect x="690" y="660" width="12" height="12" />
    <rect x="710" y="660" width="12" height="12" />
    <rect x="730" y="660" width="12" height="12" />
    
    <rect x="680" y="680" width="12" height="12" />
    <rect x="700" y="680" width="12" height="12" />
    <rect x="720" y="680" width="12" height="12" />
    <rect x="740" y="680" width="12" height="12" />
    <rect x="760" y="680" width="12" height="12" />
    
    <rect x="700" y="700" width="12" height="12" />
    <rect x="720" y="700" width="12" height="12" />
    <rect x="740" y="700" width="12" height="12" />
    <rect x="760" y="700" width="12" height="12" />
    
    <rect x="720" y="720" width="12" height="12" />
    <rect x="740" y="720" width="12" height="12" />
    <rect x="760" y="720" width="12" height="12" />
    
    <!-- Pixels below stem -->
    <rect x="630" y="640" width="12" height="12" />
    
    <rect x="640" y="660" width="12" height="12" />
    <rect x="660" y="660" width="12" height="12" />
    
    <rect x="650" y="680" width="12" height="12" />
    <rect x="670" y="680" width="12" height="12" />
    <rect x="690" y="680" width="12" height="12" />
    
    <rect x="660" y="700" width="12" height="12" />
    <rect x="680" y="700" width="12" height="12" />
    <rect x="700" y="700" width="12" height="12" />
    <rect x="720" y="700" width="12" height="12" />
    
    <rect x="680" y="720" width="12" height="12" />
    <rect x="700" y="720" width="12" height="12" />
    <rect x="720" y="720" width="12" height="12" />
    <rect x="740" y="720" width="12" height="12" />
    
    <rect x="700" y="740" width="12" height="12" />
    <rect x="720" y="740" width="12" height="12" />
    <rect x="740" y="740" width="12" height="12" />
    
    <rect x="720" y="760" width="12" height="12" />
    <rect x="740" y="760" width="12" height="12" />
    
    <rect x="740" y="780" width="12" height="12" />
  </g>
  
  <!-- Leaf Stem Line (Drawn last to be on top) -->
  <path d="M 630 620 L 750 740" stroke="#00ff9d" stroke-width="4" fill="none" filter="url(#glow)"/>

</svg>
